<?xml version="1.0" encoding="iso-8859-1"?>
<!-- Generator: Adobe Illustrator 19.0.0, SVG Export Plug-In . SVG Version: 6.00 Build 0)  -->
<svg version="1.1" id="&#x56FE;&#x5C42;_1" xmlns="http://www.w3.org/2000/svg" xmlns:xlink="http://www.w3.org/1999/xlink" x="0px"
	 y="0px" viewBox="-127 397.781 340.434 47.109" style="enable-background:new -127 397.781 340.434 47.109;" xml:space="preserve">
<g id="XMLID_2_">
	<path id="XMLID_3_" style="fill:#FFFFFF;" d="M-92.822,442.567c-3.2,1.549-7.378,2.323-12.534,2.323
		c-6.726,0-12.014-1.977-15.866-5.931c-3.852-3.953-5.778-9.221-5.778-15.804c0-7.011,2.165-12.697,6.496-17.059
		c4.331-4.361,9.951-6.542,16.86-6.542c4.28,0,7.887,0.54,10.822,1.62v9.507c-2.935-1.752-6.277-2.629-10.027-2.629
		c-4.117,0-7.439,1.294-9.966,3.882c-2.527,2.589-3.791,6.094-3.791,10.517c0,4.239,1.192,7.617,3.577,10.134
		c2.385,2.518,5.594,3.775,9.63,3.775c3.852,0,7.377-0.937,10.577-2.813V442.567z"/>
	<path id="XMLID_5_" style="fill:#FFFFFF;" d="M-76.467,444.126h-9.66v-46.345h9.66V444.126z"/>
	<path id="XMLID_7_" style="fill:#FFFFFF;" d="M-53.417,444.89c-5.218,0-9.319-1.462-12.305-4.387
		c-2.986-2.924-4.479-6.894-4.479-11.907c0-5.176,1.548-9.227,4.646-12.152c3.098-2.924,7.286-4.387,12.564-4.387
		c5.197,0,9.273,1.462,12.229,4.387c2.955,2.925,4.433,6.792,4.433,11.602c0,5.197-1.524,9.304-4.57,12.32
		C-43.945,443.382-48.118,444.89-53.417,444.89z M-53.172,419.455c-2.283,0-4.056,0.785-5.319,2.354
		c-1.264,1.569-1.896,3.791-1.896,6.664c0,6.013,2.425,9.019,7.276,9.019c4.626,0,6.939-3.087,6.939-9.263
		C-46.171,422.38-48.505,419.455-53.172,419.455z"/>
	<path id="XMLID_10_" style="fill:#FFFFFF;" d="M-0.316,444.126h-9.63v-4.769h-0.153c-2.384,3.689-5.574,5.533-9.568,5.533
		c-7.256,0-10.883-4.392-10.883-13.176v-18.892h9.63v18.037c0,4.423,1.752,6.634,5.258,6.634c1.732,0,3.119-0.606,4.158-1.819
		c1.04-1.212,1.559-2.858,1.559-4.937v-17.915h9.63L-0.316,444.126L-0.316,444.126z"/>
	<path id="XMLID_12_" style="fill:#FFFFFF;" d="M38.448,444.126h-9.661v-4.311h-0.122c-2.201,3.383-5.432,5.075-9.691,5.075
		c-3.913,0-7.062-1.38-9.446-4.142s-3.577-6.619-3.577-11.571c0-5.176,1.314-9.324,3.943-12.442
		c2.629-3.118,6.073-4.677,10.333-4.677c4.035,0,6.848,1.447,8.438,4.341h0.122v-18.618h9.661L38.448,444.126L38.448,444.126z
		 M28.971,428.902v-2.354c0-2.038-0.591-3.729-1.773-5.075c-1.183-1.345-2.721-2.018-4.616-2.018c-2.14,0-3.812,0.841-5.014,2.522
		c-1.203,1.682-1.804,3.99-1.804,6.924c0,2.751,0.581,4.871,1.743,6.359c1.162,1.488,2.771,2.231,4.83,2.231
		c1.957,0,3.551-0.784,4.784-2.354C28.354,433.569,28.971,431.49,28.971,428.902z"/>
	<path id="XMLID_15_" style="fill:#FFFFFF;" d="M97.479,444.126h-9.752v-26.23c0-2.833,0.122-5.961,0.367-9.385h-0.245
		c-0.51,2.69-0.968,4.627-1.375,5.809l-10.272,29.806h-8.07l-10.455-29.5c-0.286-0.795-0.744-2.833-1.376-6.114h-0.275
		c0.265,4.321,0.397,8.112,0.397,11.373v24.242h-8.896v-43.839h14.46l8.957,25.985c0.713,2.079,1.233,4.168,1.559,6.267h0.183
		c0.551-2.425,1.132-4.534,1.743-6.328l8.957-25.923h14.093L97.479,444.126L97.479,444.126z"/>
	<path id="XMLID_17_" style="fill:#FFFFFF;" d="M136.242,444.126h-9.629v-4.769h-0.152c-2.385,3.689-5.575,5.533-9.569,5.533
		c-7.256,0-10.883-4.392-10.883-13.176v-18.892h9.63v18.037c0,4.423,1.752,6.634,5.258,6.634c1.732,0,3.118-0.606,4.157-1.819
		c1.04-1.212,1.56-2.858,1.56-4.937v-17.915h9.629v31.304H136.242z"/>
	<path id="XMLID_19_" style="fill:#FFFFFF;" d="M142.326,443.301v-7.826c1.59,0.958,3.174,1.671,4.754,2.14
		c1.579,0.469,3.072,0.703,4.479,0.703c1.712,0,3.062-0.234,4.051-0.703c0.988-0.468,1.482-1.182,1.482-2.14
		c0-0.611-0.225-1.121-0.673-1.529c-0.448-0.407-1.023-0.764-1.727-1.07s-1.473-0.581-2.309-0.825s-1.641-0.52-2.415-0.826
		c-1.243-0.468-2.339-0.973-3.286-1.513c-0.948-0.54-1.742-1.167-2.385-1.88c-0.642-0.713-1.131-1.539-1.467-2.477
		c-0.337-0.937-0.505-2.048-0.505-3.332c0-1.752,0.382-3.26,1.146-4.524c0.765-1.263,1.783-2.297,3.057-3.103
		c1.273-0.805,2.731-1.396,4.372-1.773c1.641-0.377,3.348-0.565,5.12-0.565c1.386,0,2.792,0.107,4.219,0.321
		c1.427,0.214,2.833,0.525,4.219,0.933v7.459c-1.223-0.713-2.532-1.248-3.928-1.605c-1.396-0.356-2.767-0.535-4.112-0.535
		c-0.632,0-1.228,0.056-1.788,0.168c-0.561,0.112-1.055,0.275-1.482,0.489c-0.428,0.214-0.765,0.489-1.009,0.825
		c-0.245,0.336-0.367,0.718-0.367,1.146c0,0.571,0.184,1.06,0.551,1.467c0.366,0.408,0.845,0.76,1.437,1.055
		c0.591,0.296,1.248,0.561,1.972,0.795s1.441,0.474,2.155,0.718c1.284,0.449,2.445,0.938,3.485,1.467
		c1.039,0.53,1.931,1.152,2.675,1.865c0.743,0.713,1.314,1.549,1.712,2.506c0.397,0.958,0.596,2.1,0.596,3.424
		c0,1.854-0.402,3.439-1.207,4.753c-0.806,1.314-1.876,2.385-3.21,3.21c-1.335,0.825-2.874,1.427-4.616,1.804
		c-1.743,0.377-3.552,0.565-5.427,0.565C148.45,444.89,145.261,444.36,142.326,443.301z"/>
	<path id="XMLID_21_" style="fill:#FFFFFF;" d="M176.81,407.869c-1.631,0-2.965-0.484-4.005-1.452
		c-1.039-0.968-1.559-2.155-1.559-3.562c0-1.447,0.52-2.629,1.559-3.546c1.04-0.917,2.374-1.375,4.005-1.375
		c1.651,0,2.991,0.458,4.021,1.375c1.028,0.917,1.543,2.1,1.543,3.546c0,1.467-0.515,2.67-1.543,3.607
		C179.801,407.401,178.461,407.869,176.81,407.869z M181.579,444.126h-9.661v-31.304h9.661V444.126z"/>
	<path id="XMLID_24_" style="fill:#FFFFFF;" d="M213.434,442.994c-2.182,1.264-5.33,1.896-9.446,1.896
		c-4.811,0-8.703-1.457-11.679-4.372c-2.976-2.914-4.463-6.674-4.463-11.28c0-5.319,1.595-9.512,4.784-12.58
		c3.189-3.067,7.454-4.601,12.794-4.601c3.688,0,6.358,0.489,8.01,1.467v8.193c-2.019-1.508-4.271-2.262-6.757-2.262
		c-2.771,0-4.968,0.81-6.588,2.43c-1.62,1.621-2.43,3.857-2.43,6.71c0,2.772,0.773,4.948,2.323,6.527
		c1.548,1.58,3.678,2.369,6.389,2.369c2.405,0,4.759-0.754,7.063-2.262V442.994z"/>
</g>
</svg>
