<?xml version="1.0" encoding="utf-8"?>
<!-- Generator: Adobe Illustrator 19.0.0, SVG Export Plug-In . SVG Version: 6.00 Build 0)  -->
<svg version="1.1" id="图层_1" xmlns="http://www.w3.org/2000/svg" xmlns:xlink="http://www.w3.org/1999/xlink" x="0px" y="0px"
	 viewBox="-97.8 397.8 280.3 47.1" style="enable-background:new -97.8 397.8 280.3 47.1;" xml:space="preserve">
<style type="text/css">
	.st0{fill:#FFFFFF;}
</style>
<g>
	<path class="st0" d="M-93.7,436.4c-2.7-2.9-4.1-6.9-4.1-12.1v-3c0-5.2,1.4-9.2,4.1-12.1c2.7-2.9,6.4-4.3,11.1-4.3
		c4.2,0,7.5,1.1,10.1,3.2c2.3,1.9,3.7,4.8,4.3,8.5h-8.2c-0.7-3.4-2.8-5.4-6.1-5.4c-2.3,0-3.9,0.9-5,2.6c-1.2,1.9-1.8,4.3-1.8,7.4
		v3.1c0,2.8,0.4,5,1.3,6.7c1.2,2.2,3,3.3,5.4,3.3c1.6,0,2.9-0.5,4-1.5c1-0.9,1.7-2.2,2.1-3.9h8.2c-0.6,3.7-2,6.6-4.3,8.5
		c-2.6,2.2-5.9,3.2-10.1,3.2C-87.3,440.7-90.9,439.2-93.7,436.4z"/>
	<path class="st0" d="M-64.2,402.8h8.2v37.4h-8.2V402.8z"/>
	<path class="st0" d="M-47.5,437.7c-2.9-2.3-4.3-5.7-4.3-10.3v-0.6c0-4.2,1.3-7.5,3.9-9.9c2.5-2.3,5.9-3.4,10.1-3.4c4,0,7.2,1,9.7,3
		c2.9,2.4,4.3,5.8,4.3,10.2v0.6c0,4.5-1.4,7.9-4.3,10.3c-2.4,2-5.7,3-9.7,3S-45,439.6-47.5,437.7z M-33.8,433.4
		c1.2-1.5,1.8-3.4,1.8-5.9v-0.9c0-2.5-0.6-4.4-1.8-5.9c-0.9-1.1-2.2-1.7-3.9-1.7c-1.7,0-3,0.6-3.9,1.7c-1.2,1.5-1.8,3.4-1.8,5.9v0.9
		c0,2.5,0.6,4.4,1.8,5.9c0.9,1.1,2.2,1.7,3.9,1.7C-36,435.1-34.7,434.6-33.8,433.4z"/>
	<path class="st0" d="M-11.4,428.6c0,3.9,1.5,5.8,4.5,5.8c2.4,0,4-1.3,4.8-3.9c0.2-0.8,0.3-1.7,0.3-2.7V414h8.2v26.2h-8.2V436
		c-1,2.2-2.7,3.6-5.3,4.3c-0.9,0.2-1.9,0.3-2.9,0.3c-2.9,0-5.2-1-7-3c-1.8-2-2.6-4.6-2.6-7.9V414h8.2V428.6z"/>
	<path class="st0" d="M13.7,436.8c-2-2.4-3-5.3-3-8.8v-1.9c0-3.4,1-6.4,3.2-8.8c2.2-2.5,5-3.8,8.4-3.8c2.2,0,4.1,0.5,5.6,1.5
		c1.1,0.8,2.1,1.8,2.7,3.1v-15.4h8.2v37.4h-8.2V436c-0.7,1.3-1.6,2.4-2.9,3.1c-1.6,1-3.5,1.5-5.7,1.5
		C18.5,440.6,15.8,439.4,13.7,436.8z M20.4,421.7c-0.9,1.3-1.4,3-1.4,4.8v1.2c0,3.1,1,5.3,3.1,6.5c0.7,0.4,1.5,0.6,2.5,0.6
		c2.7,0,4.4-1.5,5.4-4.4c0.3-0.9,0.4-1.8,0.4-2.7v-1.3c0-3.1-1.1-5.3-3.4-6.5c-0.7-0.4-1.5-0.6-2.4-0.6
		C22.9,419.4,21.5,420.1,20.4,421.7z"/>
	<path class="st0" d="M64.2,428.6h-4.7l-6.7-12.1v23.6h-7.7l0.2-34.9h7.6l9.1,16l9.2-16h7.7l0.2,34.9h-8.3l0-23.6L64.2,428.6z"/>
	<path class="st0" d="M93.7,428.6c0,3.9,1.5,5.8,4.5,5.8c2.4,0,4-1.3,4.8-3.9c0.2-0.8,0.3-1.7,0.3-2.7V414h8.2v26.2h-8.2V436
		c-1,2.2-2.7,3.6-5.3,4.3c-0.9,0.2-1.9,0.3-2.9,0.3c-2.9,0-5.2-1-7-3c-1.8-2-2.6-4.6-2.6-7.9V414h8.2V428.6z"/>
	<path class="st0" d="M126.1,440.6c-6.2,0-9.6-2.6-10.3-7.7h6.9c0.6,1.9,2,2.9,4,2.9h1.6c2.6,0,3.9-1,3.9-3.1c0-1.3-0.8-2.1-2.5-2.4
		l-6.2-1.3c-4.8-1-7.2-3.5-7.2-7.4c0-2.7,1.1-4.8,3.4-6.2c1.9-1.2,4.3-1.8,7.2-1.8h2.3c5.9,0,9.3,2.3,10.2,7h-6.9
		c-0.5-1.5-1.7-2.3-3.6-2.3h-1.1c-2.4,0-3.5,0.9-3.5,2.6c0,1.1,0.7,1.9,2.2,2.2l6.2,1.3c5,1.1,7.5,3.6,7.5,7.5
		c0,2.9-1.2,5.1-3.7,6.7c-2.1,1.4-4.7,2.1-7.8,2.1H126.1z"/>
	<path class="st0" d="M145.3,402.9c0.8-0.6,1.8-0.9,3.1-0.9c3,0,4.4,1.2,4.4,3.7c0,1.2-0.4,2.2-1.3,2.8c-0.8,0.6-1.8,0.9-3.1,0.9
		c-3,0-4.4-1.2-4.4-3.7C144,404.4,144.5,403.5,145.3,402.9z M144.4,414h8.2v26.2h-8.2V414z"/>
	<path class="st0" d="M160.4,437.3c-2.4-2.3-3.6-5.4-3.6-9.4v-1.5c0-4,1.2-7.2,3.6-9.5c2.4-2.2,5.6-3.3,9.6-3.3
		c7.1,0,11.3,3.2,12.5,9.7h-7.6c-0.6-2.8-2.2-4.2-4.7-4.2c-1.8,0-3.1,0.7-3.9,2.1c-0.8,1.4-1.2,3.2-1.2,5.2v1.4c0,2,0.4,3.7,1.2,5.2
		c0.8,1.4,2.1,2.1,3.9,2.1c2.5,0,4-1.4,4.6-4.2h7.6c-1.3,6.5-5.5,9.7-12.4,9.7C166,440.6,162.8,439.5,160.4,437.3z"/>
</g>
</svg>
